<svg width="300" height="100" viewBox="0 0 300 100" fill="none" xmlns="http://www.w3.org/2000/svg">
<rect width="300" height="100" fill="#D9D9D9"/>
<path d="M113.357 39.6C113.357 40.3156 113.206 40.8844 112.904 41.3067C112.602 41.7289 112.186 42.0333 111.657 42.22C111.129 42.4022 110.524 42.4933 109.844 42.4933H108.617V46H107.764V36.84H109.937C110.986 36.84 111.817 37.0644 112.431 37.5133C113.049 37.9578 113.357 38.6533 113.357 39.6ZM112.424 39.62C112.424 39.1 112.32 38.6911 112.111 38.3933C111.906 38.0956 111.629 37.8844 111.277 37.76C110.931 37.6311 110.544 37.5667 110.117 37.5667H108.617V41.7533H110.024C110.482 41.7533 110.891 41.6956 111.251 41.58C111.611 41.46 111.895 41.2467 112.104 40.94C112.317 40.6289 112.424 40.1889 112.424 39.62ZM117.915 36.1667V44.4133C117.915 44.7778 118.031 45.0356 118.262 45.1867C118.498 45.3378 118.793 45.4133 119.149 45.4133C119.371 45.4133 119.58 45.3911 119.775 45.3467C119.975 45.3022 120.178 45.24 120.382 45.16L120.622 45.8C120.449 45.8844 120.229 45.96 119.962 46.0267C119.695 46.0978 119.398 46.1333 119.069 46.1333C118.518 46.1333 118.049 45.9844 117.662 45.6867C117.28 45.3844 117.089 44.96 117.089 44.4133V36.8867H114.915V36.1667H117.915ZM128.22 44.62C128.22 44.9044 128.269 45.1133 128.367 45.2467C128.465 45.3756 128.616 45.4711 128.82 45.5333L128.594 46.14C128.327 46.1 128.089 46.0022 127.88 45.8467C127.671 45.6911 127.525 45.4533 127.44 45.1333C126.942 45.8 126.222 46.1333 125.28 46.1333C124.587 46.1333 124.042 45.9378 123.647 45.5467C123.251 45.1556 123.054 44.6333 123.054 43.98C123.054 43.2689 123.329 42.7244 123.88 42.3467C124.436 41.9689 125.242 41.78 126.3 41.78H127.36V41.1C127.36 40.5533 127.202 40.1711 126.887 39.9533C126.576 39.7311 126.149 39.62 125.607 39.62C125.371 39.62 125.105 39.6467 124.807 39.7C124.509 39.7533 124.178 39.8444 123.814 39.9733L123.574 39.2933C123.996 39.1378 124.378 39.0289 124.72 38.9667C125.067 38.9044 125.402 38.8733 125.727 38.8733C126.549 38.8733 127.169 39.0756 127.587 39.48C128.009 39.88 128.22 40.4111 128.22 41.0733V44.62ZM125.44 45.4733C125.822 45.4733 126.18 45.38 126.514 45.1933C126.847 45.0067 127.129 44.7467 127.36 44.4133V42.4133H126.2C125.369 42.4133 124.789 42.56 124.46 42.8533C124.131 43.1422 123.967 43.5267 123.967 44.0067C123.967 44.9844 124.458 45.4733 125.44 45.4733ZM134.465 45.3733C134.838 45.3733 135.183 45.3156 135.498 45.2C135.818 45.0844 136.107 44.9356 136.365 44.7533L136.798 45.3133C136.492 45.5711 136.125 45.7733 135.698 45.92C135.272 46.0622 134.872 46.1333 134.498 46.1333C133.48 46.1333 132.696 45.8067 132.145 45.1533C131.594 44.5 131.318 43.6244 131.318 42.5267C131.318 41.8333 131.44 41.2111 131.685 40.66C131.934 40.1089 132.294 39.6733 132.765 39.3533C133.24 39.0333 133.82 38.8733 134.505 38.8733C135.363 38.8733 136.12 39.1378 136.778 39.6667L136.338 40.26C135.703 39.8244 135.078 39.6067 134.465 39.6067C133.82 39.6067 133.287 39.8511 132.865 40.34C132.447 40.8289 132.238 41.5578 132.238 42.5267C132.238 43.5044 132.447 44.2244 132.865 44.6867C133.287 45.1444 133.82 45.3733 134.465 45.3733ZM140.063 42.8333C140.076 43.42 140.181 43.9022 140.376 44.28C140.576 44.6533 140.838 44.9289 141.163 45.1067C141.487 45.2844 141.841 45.3733 142.223 45.3733C142.592 45.3733 142.918 45.32 143.203 45.2133C143.492 45.1067 143.794 44.9444 144.11 44.7267L144.543 45.3467C144.218 45.5956 143.852 45.7889 143.443 45.9267C143.038 46.0644 142.643 46.1333 142.256 46.1333C141.612 46.1333 141.058 45.9822 140.596 45.68C140.138 45.3778 139.787 44.9556 139.543 44.4133C139.298 43.8667 139.176 43.2311 139.176 42.5067C139.176 41.7956 139.301 41.1667 139.55 40.62C139.798 40.0733 140.143 39.6467 140.583 39.34C141.027 39.0289 141.543 38.8733 142.13 38.8733C142.978 38.8733 143.643 39.1778 144.123 39.7867C144.603 40.3911 144.843 41.2156 144.843 42.26C144.843 42.38 144.841 42.4889 144.836 42.5867C144.832 42.68 144.827 42.7622 144.823 42.8333H140.063ZM142.15 39.6467C141.585 39.6467 141.11 39.8467 140.723 40.2467C140.341 40.6467 140.125 41.26 140.076 42.0867H144.056C144.038 41.2644 143.854 40.6533 143.503 40.2533C143.152 39.8489 142.701 39.6467 142.15 39.6467ZM148.288 36.0867V40.0333C148.559 39.6511 148.903 39.3622 149.321 39.1667C149.739 38.9711 150.157 38.8733 150.574 38.8733C151.277 38.8733 151.783 39.0556 152.094 39.42C152.405 39.7844 152.561 40.2889 152.561 40.9333V46H151.734V40.7867C151.734 39.9689 151.277 39.56 150.361 39.56C150.059 39.56 149.772 39.6267 149.501 39.76C149.23 39.8933 148.99 40.0578 148.781 40.2533C148.572 40.4444 148.408 40.6333 148.288 40.82V46H147.461V36.1867L148.288 36.0867ZM158.019 38.8733C158.979 38.8733 159.697 39.2022 160.172 39.86C160.652 40.5133 160.892 41.3933 160.892 42.5C160.892 43.1933 160.783 43.8133 160.566 44.36C160.348 44.9067 160.023 45.34 159.592 45.66C159.166 45.9756 158.635 46.1333 157.999 46.1333C157.359 46.1333 156.823 45.9822 156.392 45.68C155.966 45.3733 155.643 44.9489 155.426 44.4067C155.212 43.86 155.106 43.2289 155.106 42.5133C155.106 41.7978 155.215 41.1667 155.432 40.62C155.65 40.0733 155.975 39.6467 156.406 39.34C156.841 39.0289 157.379 38.8733 158.019 38.8733ZM158.019 39.6C157.361 39.6 156.861 39.8378 156.519 40.3133C156.181 40.7889 156.012 41.5222 156.012 42.5133C156.012 44.4378 156.675 45.4 157.999 45.4C159.323 45.4 159.986 44.4333 159.986 42.5C159.986 41.5178 159.819 40.7889 159.486 40.3133C159.157 39.8378 158.668 39.6 158.019 39.6ZM165.904 36.1667V44.4133C165.904 44.7778 166.019 45.0356 166.25 45.1867C166.486 45.3378 166.782 45.4133 167.137 45.4133C167.359 45.4133 167.568 45.3911 167.764 45.3467C167.964 45.3022 168.166 45.24 168.37 45.16L168.61 45.8C168.437 45.8844 168.217 45.96 167.95 46.0267C167.684 46.0978 167.386 46.1333 167.057 46.1333C166.506 46.1333 166.037 45.9844 165.65 45.6867C165.268 45.3844 165.077 44.96 165.077 44.4133V36.8867H162.904V36.1667H165.904ZM175.708 36.0533L176.535 36.1667V46H175.815L175.708 45.0333C175.428 45.4333 175.115 45.7178 174.768 45.8867C174.426 46.0511 174.073 46.1333 173.708 46.1333C173.091 46.1333 172.582 45.9822 172.182 45.68C171.786 45.3733 171.493 44.9489 171.302 44.4067C171.111 43.86 171.015 43.2311 171.015 42.52C171.015 41.8222 171.122 41.2 171.335 40.6533C171.553 40.1022 171.864 39.6689 172.268 39.3533C172.677 39.0333 173.171 38.8733 173.748 38.8733C174.175 38.8733 174.548 38.9489 174.868 39.1C175.188 39.2467 175.468 39.4644 175.708 39.7533V36.0533ZM173.955 39.5867C173.306 39.5867 172.808 39.8333 172.462 40.3267C172.12 40.8156 171.948 41.5444 171.948 42.5133C171.948 43.4333 172.104 44.1467 172.415 44.6533C172.731 45.16 173.197 45.4133 173.815 45.4133C174.26 45.4133 174.635 45.2889 174.942 45.04C175.253 44.7911 175.508 44.5178 175.708 44.22V40.58C175.504 40.2644 175.248 40.02 174.942 39.8467C174.64 39.6733 174.311 39.5867 173.955 39.5867ZM180.053 42.8333C180.066 43.42 180.171 43.9022 180.366 44.28C180.566 44.6533 180.829 44.9289 181.153 45.1067C181.478 45.2844 181.831 45.3733 182.213 45.3733C182.582 45.3733 182.909 45.32 183.193 45.2133C183.482 45.1067 183.784 44.9444 184.1 44.7267L184.533 45.3467C184.209 45.5956 183.842 45.7889 183.433 45.9267C183.029 46.0644 182.633 46.1333 182.246 46.1333C181.602 46.1333 181.049 45.9822 180.586 45.68C180.129 45.3778 179.778 44.9556 179.533 44.4133C179.289 43.8667 179.166 43.2311 179.166 42.5067C179.166 41.7956 179.291 41.1667 179.54 40.62C179.789 40.0733 180.133 39.6467 180.573 39.34C181.018 39.0289 181.533 38.8733 182.12 38.8733C182.969 38.8733 183.633 39.1778 184.113 39.7867C184.593 40.3911 184.833 41.2156 184.833 42.26C184.833 42.38 184.831 42.4889 184.826 42.5867C184.822 42.68 184.818 42.7622 184.813 42.8333H180.053ZM182.14 39.6467C181.575 39.6467 181.1 39.8467 180.713 40.2467C180.331 40.6467 180.115 41.26 180.066 42.0867H184.046C184.029 41.2644 183.844 40.6533 183.493 40.2533C183.142 39.8489 182.691 39.6467 182.14 39.6467ZM187.518 46V45.3067H188.658V39.7H187.518V39H189.291L189.445 40.68C189.72 40.1111 190.049 39.6667 190.431 39.3467C190.818 39.0222 191.338 38.86 191.991 38.86C192.173 38.86 192.336 38.8733 192.478 38.9C192.625 38.9267 192.778 38.96 192.938 39L192.845 41.2H192.045V39.8333L192.058 39.66C192.005 39.6556 191.949 39.6533 191.891 39.6533C191.327 39.6533 190.847 39.8467 190.451 40.2333C190.056 40.6156 189.733 41.2222 189.485 42.0533V45.3067H190.925V46H187.518ZM125.574 52.7133C126.125 52.7133 126.602 52.8178 127.007 53.0267C127.416 53.2311 127.731 53.5067 127.954 53.8533C128.18 54.1956 128.294 54.5733 128.294 54.9867C128.294 55.3511 128.209 55.6867 128.04 55.9933C127.876 56.2956 127.66 56.5444 127.394 56.74C127.127 56.9356 126.84 57.0578 126.534 57.1067C126.871 57.1244 127.196 57.2222 127.507 57.4C127.822 57.5778 128.08 57.8289 128.28 58.1533C128.485 58.4778 128.587 58.8733 128.587 59.34C128.587 59.8733 128.456 60.3511 128.194 60.7733C127.936 61.1956 127.576 61.5289 127.114 61.7733C126.651 62.0133 126.12 62.1333 125.52 62.1333C125.058 62.1333 124.578 62.0422 124.08 61.86C123.587 61.6778 123.169 61.3756 122.827 60.9533L123.454 60.4867C123.711 60.7933 124.027 61.0244 124.4 61.18C124.774 61.3311 125.149 61.4067 125.527 61.4067C126.22 61.4067 126.756 61.2244 127.134 60.86C127.516 60.4956 127.707 60.0044 127.707 59.3867C127.707 58.9156 127.618 58.5467 127.44 58.28C127.262 58.0089 127.022 57.8178 126.72 57.7067C126.418 57.5911 126.08 57.5333 125.707 57.5333H124.96L125.067 56.82H125.587C125.894 56.82 126.187 56.76 126.467 56.64C126.751 56.5156 126.985 56.3267 127.167 56.0733C127.349 55.8156 127.44 55.4911 127.44 55.1C127.44 54.5444 127.258 54.1244 126.894 53.84C126.529 53.5556 126.094 53.4133 125.587 53.4133C125.182 53.4133 124.831 53.4822 124.534 53.62C124.236 53.7578 123.929 53.9756 123.614 54.2733L123.134 53.7133C123.516 53.3578 123.914 53.1022 124.327 52.9467C124.74 52.7911 125.156 52.7133 125.574 52.7133ZM134.005 52.7133C134.96 52.7133 135.683 53.1178 136.172 53.9267C136.665 54.7356 136.912 55.9 136.912 57.42C136.912 58.9444 136.665 60.1111 136.172 60.92C135.683 61.7289 134.96 62.1333 134.005 62.1333C133.054 62.1333 132.332 61.7289 131.838 60.92C131.345 60.1111 131.098 58.9444 131.098 57.42C131.098 55.9 131.345 54.7356 131.838 53.9267C132.332 53.1178 133.054 52.7133 134.005 52.7133ZM134.005 53.4333C133.414 53.4333 132.938 53.7467 132.578 54.3733C132.223 54.9956 132.045 56.0111 132.045 57.42C132.045 58.4867 132.143 59.3333 132.338 59.96L135.298 54.0667C134.987 53.6444 134.556 53.4333 134.005 53.4333ZM135.972 57.42C135.972 56.2733 135.863 55.3844 135.645 54.7533L132.685 60.7133C133 61.1756 133.44 61.4067 134.005 61.4067C134.605 61.4067 135.083 61.0911 135.438 60.46C135.794 59.8289 135.972 58.8156 135.972 57.42ZM142.003 52.7133C142.958 52.7133 143.681 53.1178 144.17 53.9267C144.663 54.7356 144.91 55.9 144.91 57.42C144.91 58.9444 144.663 60.1111 144.17 60.92C143.681 61.7289 142.958 62.1333 142.003 62.1333C141.052 62.1333 140.33 61.7289 139.836 60.92C139.343 60.1111 139.096 58.9444 139.096 57.42C139.096 55.9 139.343 54.7356 139.836 53.9267C140.33 53.1178 141.052 52.7133 142.003 52.7133ZM142.003 53.4333C141.412 53.4333 140.936 53.7467 140.576 54.3733C140.221 54.9956 140.043 56.0111 140.043 57.42C140.043 58.4867 140.141 59.3333 140.336 59.96L143.296 54.0667C142.985 53.6444 142.554 53.4333 142.003 53.4333ZM143.97 57.42C143.97 56.2733 143.861 55.3844 143.643 54.7533L140.683 60.7133C140.998 61.1756 141.438 61.4067 142.003 61.4067C142.603 61.4067 143.081 61.0911 143.436 60.46C143.792 59.8289 143.97 58.8156 143.97 57.42ZM152.028 55.06L152.608 55.64L150.588 57.6733L152.608 59.7333L152.028 60.3133L150.001 58.26L147.934 60.3133L147.354 59.7333L149.414 57.6733L147.354 55.64L147.934 55.06L150.001 57.08L152.028 55.06ZM160.766 61.2867V62H155.679V61.2867H157.946V53.7933L155.779 55.1L155.412 54.4933L158.072 52.84H158.792V61.2867H160.766ZM165.997 52.7133C166.953 52.7133 167.675 53.1178 168.164 53.9267C168.657 54.7356 168.904 55.9 168.904 57.42C168.904 58.9444 168.657 60.1111 168.164 60.92C167.675 61.7289 166.953 62.1333 165.997 62.1333C165.046 62.1333 164.324 61.7289 163.83 60.92C163.337 60.1111 163.09 58.9444 163.09 57.42C163.09 55.9 163.337 54.7356 163.83 53.9267C164.324 53.1178 165.046 52.7133 165.997 52.7133ZM165.997 53.4333C165.406 53.4333 164.93 53.7467 164.57 54.3733C164.215 54.9956 164.037 56.0111 164.037 57.42C164.037 58.4867 164.135 59.3333 164.33 59.96L167.29 54.0667C166.979 53.6444 166.548 53.4333 165.997 53.4333ZM167.964 57.42C167.964 56.2733 167.855 55.3844 167.637 54.7533L164.677 60.7133C164.993 61.1756 165.433 61.4067 165.997 61.4067C166.597 61.4067 167.075 61.0911 167.43 60.46C167.786 59.8289 167.964 58.8156 167.964 57.42ZM173.995 52.7133C174.951 52.7133 175.673 53.1178 176.162 53.9267C176.655 54.7356 176.902 55.9 176.902 57.42C176.902 58.9444 176.655 60.1111 176.162 60.92C175.673 61.7289 174.951 62.1333 173.995 62.1333C173.044 62.1333 172.322 61.7289 171.828 60.92C171.335 60.1111 171.088 58.9444 171.088 57.42C171.088 55.9 171.335 54.7356 171.828 53.9267C172.322 53.1178 173.044 52.7133 173.995 52.7133ZM173.995 53.4333C173.404 53.4333 172.928 53.7467 172.568 54.3733C172.213 54.9956 172.035 56.0111 172.035 57.42C172.035 58.4867 172.133 59.3333 172.328 59.96L175.288 54.0667C174.977 53.6444 174.546 53.4333 173.995 53.4333ZM175.962 57.42C175.962 56.2733 175.853 55.3844 175.635 54.7533L172.675 60.7133C172.991 61.1756 173.431 61.4067 173.995 61.4067C174.595 61.4067 175.073 61.0911 175.428 60.46C175.784 59.8289 175.962 58.8156 175.962 57.42Z" fill="black"/>
</svg>
